<svg xmlns="http://www.w3.org/2000/svg" width="120" height="120" viewBox="0 0 120 120" fill="none">
  <defs>
    <linearGradient id="logoGradient" x1="0%" y1="0%" x2="100%" y2="100%">
      <stop offset="0%" stop-color="#06b6d4" />
      <stop offset="100%" stop-color="#3b82f6" />
    </linearGradient>
    <filter id="glow" x="-20%" y="-20%" width="140%" height="140%">
      <feGaussianBlur stdDeviation="5" result="blur" />
      <feComposite in="SourceGraphic" in2="blur" operator="over" />
    </filter>
  </defs>
  <circle cx="60" cy="60" r="60" fill="#0a0a15" />
  <g filter="url(#glow)">
    <path d="M39.5 46C47.5 34 58 38 60 39.5C62 41 74 50 80 38.5M39.5 46C31.5 58 42 62 45 62C48 62 60 62 60 74M39.5 46C35 52 35 58 39.5 74M80 38.5C88 27 77.5 24 74 24C70.5 24 60 24 60 12M80 38.5C84.5 44.5 84.5 50.5 80 66M60 12C52 0 41.5 4 39.5 5.5C37.5 7 26 16 20 4.5M60 12C68 24 77.5 28 80 28C82.5 28 94 28 100 40M20 4.5C12 -7 2.5 -3 0 -1.5C-2.5 0 -14 9 -20 -2.5M20 4.5C15.5 10.5 15.5 16.5 20 32M100 40C108 52 97.5 56 94.5 56C91.5 56 80 56 80 68M100 40C104.5 46 104.5 52 100 68M80 68C72 80 61.5 76 59.5 74.5C57.5 73 46 64 40 75.5M80 68C88 80 98.5 76 101 74.5C103.5 73 115 64 121 75.5M40 75.5C32 87 42.5 91 45.5 91C48.5 91 60 91 60 103M40 75.5C35.5 81.5 35.5 87.5 40 103M60 103C68 115 78.5 111 80.5 109.5C82.5 108 94 99 100 110.5M60 103C52 115 41.5 111 39.5 109.5C37.5 108 26 99 20 110.5M100 110.5C108 122.5 118.5 118.5 121 117C123.5 115.5 135 106.5 141 118M100 110.5C95.5 116.5 95.5 122.5 100 138.5M20 110.5C12 122.5 1.5 118.5 -1 117C-3.5 115.5 -15 106.5 -21 118M20 110.5C24.5 116.5 24.5 122.5 20 138.5" stroke="url(#logoGradient)" stroke-width="5" stroke-linecap="round" transform="scale(0.57) translate(60, 60)"/>
  </g>
</svg>